<svg width="38" height="38" viewBox="0 0 38 38" fill="none" xmlns="http://www.w3.org/2000/svg">
<path d="M16.9059 27.5952C17.2595 28.0195 17.89 28.0768 18.3143 27.7233C18.7386 27.3697 18.7959 26.7392 18.4423 26.3149L17.6741 26.9551L16.9059 27.5952ZM11.0449 19.0001L10.2767 18.3599C9.96768 18.7307 9.96768 19.2694 10.2767 19.6402L11.0449 19.0001ZM18.4423 11.6852C18.7959 11.261 18.7386 10.6304 18.3143 10.2768C17.89 9.92326 17.2595 9.98059 16.9059 10.4049L17.6741 11.045L18.4423 11.6852ZM26.955 20.0001C27.5072 20.0001 27.955 19.5523 27.955 19.0001C27.955 18.4478 27.5072 18.0001 26.955 18.0001V19.0001V20.0001ZM17.6741 26.9551L18.4423 26.3149L11.8132 18.3599L11.0449 19.0001L10.2767 19.6402L16.9059 27.5952L17.6741 26.9551ZM11.0449 19.0001L11.8132 19.6402L18.4423 11.6852L17.6741 11.045L16.9059 10.4049L10.2767 18.3599L11.0449 19.0001ZM11.0449 19.0001V20.0001H26.955V19.0001V18.0001H11.0449V19.0001ZM6.27208 6.27208L6.97918 6.97918C13.6181 0.340272 24.3819 0.340272 31.0208 6.97918L31.7279 6.27208L32.435 5.56497C25.0151 -1.85499 12.9849 -1.85499 5.56497 5.56497L6.27208 6.27208ZM31.7279 6.27208L31.0208 6.97918C37.6597 13.6181 37.6597 24.3819 31.0208 31.0208L31.7279 31.7279L32.435 32.435C39.855 25.0151 39.855 12.9849 32.435 5.56497L31.7279 6.27208ZM31.7279 31.7279L31.0208 31.0208C24.3819 37.6597 13.6181 37.6597 6.97918 31.0208L6.27208 31.7279L5.56497 32.435C12.9849 39.855 25.0151 39.855 32.435 32.435L31.7279 31.7279ZM6.27208 31.7279L6.97918 31.0208C0.340272 24.3819 0.340272 13.6181 6.97918 6.97918L6.27208 6.27208L5.56497 5.56497C-1.85499 12.9849 -1.85499 25.0151 5.56497 32.435L6.27208 31.7279Z" fill="#FCFFFD"/>
<path d="M16.9059 27.5952C17.2595 28.0195 17.89 28.0768 18.3143 27.7233C18.7386 27.3697 18.7959 26.7392 18.4423 26.3149L17.6741 26.9551L16.9059 27.5952ZM11.0449 19.0001L10.2767 18.3599C9.96768 18.7307 9.96768 19.2694 10.2767 19.6402L11.0449 19.0001ZM18.4423 11.6852C18.7959 11.261 18.7386 10.6304 18.3143 10.2768C17.89 9.92326 17.2595 9.98059 16.9059 10.4049L17.6741 11.045L18.4423 11.6852ZM26.955 20.0001C27.5072 20.0001 27.955 19.5523 27.955 19.0001C27.955 18.4478 27.5072 18.0001 26.955 18.0001V19.0001V20.0001ZM17.6741 26.9551L18.4423 26.3149L11.8132 18.3599L11.0449 19.0001L10.2767 19.6402L16.9059 27.5952L17.6741 26.9551ZM11.0449 19.0001L11.8132 19.6402L18.4423 11.6852L17.6741 11.045L16.9059 10.4049L10.2767 18.3599L11.0449 19.0001ZM11.0449 19.0001V20.0001H26.955V19.0001V18.0001H11.0449V19.0001ZM6.27208 6.27208L6.97918 6.97918C13.6181 0.340272 24.3819 0.340272 31.0208 6.97918L31.7279 6.27208L32.435 5.56497C25.0151 -1.85499 12.9849 -1.85499 5.56497 5.56497L6.27208 6.27208ZM31.7279 6.27208L31.0208 6.97918C37.6597 13.6181 37.6597 24.3819 31.0208 31.0208L31.7279 31.7279L32.435 32.435C39.855 25.0151 39.855 12.9849 32.435 5.56497L31.7279 6.27208ZM31.7279 31.7279L31.0208 31.0208C24.3819 37.6597 13.6181 37.6597 6.97918 31.0208L6.27208 31.7279L5.56497 32.435C12.9849 39.855 25.0151 39.855 32.435 32.435L31.7279 31.7279ZM6.27208 31.7279L6.97918 31.0208C0.340272 24.3819 0.340272 13.6181 6.97918 6.97918L6.27208 6.27208L5.56497 5.56497C-1.85499 12.9849 -1.85499 25.0151 5.56497 32.435L6.27208 31.7279Z" fill="#20B658"/>
</svg>
