<svg width="108" height="72" viewBox="0 0 108 72" fill="none" xmlns="http://www.w3.org/2000/svg">
<rect x="3" y="3" width="102" height="66" rx="12" fill="#26365F"/>
<rect x="1.5" y="1.5" width="105" height="69" rx="13.5" stroke="black" stroke-opacity="0.1" stroke-width="3"/>
<path d="M60.325 15.688L44.1952 17.4802L37.0264 40.7789L46.8835 56.9087L60.325 56.0126L72.8705 45.2594L60.325 15.688Z" fill="#FF5C00"/>
<path d="M43.2988 13C47.5423 13 51.5205 14.135 54.9473 16.1172C47.9836 20.1457 43.2988 27.6753 43.2988 36.2988C43.2989 44.9222 47.9838 52.4509 54.9473 56.4795C51.5204 58.4618 47.5424 59.5976 43.2988 59.5977C30.4314 59.5977 20.0001 49.1663 20 36.2988C20 23.4313 30.4313 13 43.2988 13Z" fill="#FC0101"/>
<path d="M65.7012 13C61.4577 13 57.4795 14.135 54.0527 16.1172C61.0164 20.1457 65.7012 27.6753 65.7012 36.2988C65.7011 44.9222 61.0162 52.4509 54.0527 56.4795C57.4796 58.4618 61.4576 59.5976 65.7012 59.5977C78.5686 59.5977 88.9999 49.1663 89 36.2988C89 23.4313 78.5687 13 65.7012 13Z" fill="#FCD401"/>
</svg>
