<svg width="108" height="72" viewBox="0 0 108 72" fill="none" xmlns="http://www.w3.org/2000/svg">
<rect x="3" y="3" width="102" height="66" rx="12" fill="#2666AC"/>
<rect x="1.5" y="1.5" width="105" height="69" rx="13.5" stroke="black" stroke-opacity="0.1" stroke-width="3"/>
<path d="M15.8457 24.1426H20.5918L25.2148 42.8105L35.2168 24.1426H40.4375L26.6035 50H22.2617L15.8457 24.1426ZM43.707 24.1426H48.4531L44.8848 50H40.2266L43.707 24.1426ZM67.1738 27.7461L63.6406 30.875C62.1875 29 60.834 28.0625 59.5801 28.0625C58.959 28.0625 58.4434 28.25 58.0332 28.625C57.623 28.9883 57.418 29.4277 57.418 29.9434C57.418 30.4238 57.6055 30.957 57.9805 31.543C58.3555 32.1289 59.4922 33.4238 61.3906 35.4277C62.3984 36.4941 63.0605 37.25 63.377 37.6953C64.1387 38.7266 64.6836 39.6934 65.0117 40.5957C65.3516 41.4863 65.5215 42.3945 65.5215 43.3203C65.5215 45.3945 64.7832 47.1348 63.3066 48.541C61.8301 49.9473 59.9375 50.6504 57.6289 50.6504C54.1133 50.6504 51.248 48.9805 49.0332 45.6406L52.7598 42.6348C54.2598 44.9199 55.8828 46.0625 57.6289 46.0625C58.4609 46.0625 59.1582 45.793 59.7207 45.2539C60.2949 44.7148 60.582 44.0645 60.582 43.3027C60.582 42.7051 60.4062 42.0957 60.0547 41.4746C59.7148 40.8535 58.7305 39.6816 57.1016 37.959C55.3789 36.1426 54.248 34.7715 53.709 33.8457C52.9824 32.5918 52.6191 31.3613 52.6191 30.1543C52.6191 28.5605 53.1406 27.1309 54.1836 25.8652C55.4961 24.2832 57.2656 23.4922 59.4922 23.4922C62.5508 23.4922 65.1113 24.9102 67.1738 27.7461ZM81.5703 24.1426H85.666L92.0996 50H87.3887L86.0176 44.498H75.8047L72.834 50H67.6133L81.5703 24.1426ZM84.8398 39.9277L82.7656 31.4375L78.2129 39.9277H84.8398Z" fill="white"/>
<path d="M9 24H20.5L22 30L9 24Z" fill="#EEA84D"/>
</svg>
